<?xml version="1.0"?>
<svg xmlns="http://www.w3.org/2000/svg">
    <g id="OMA_S_aerolith__complicated_elements">
        <path d="M 10 37.93 a 14.14 14.14 0 0 0 20 -20 14.14 14.14 0 0 0 20 20" stroke-width="3" />
    </g>
    <g id="OMA_S_aether__unstable_elements">
        <path d="M 15 35 c -2 -3 -2 -10 5 -10 s 13 10 20 10 7 -7 5 -10" stroke-width="3" />
    </g>
    <g id="OMA_S_air__opus_magnum" class="nudge-up">
        <use href="#OMA_S_fire__opus_magnum" />
        <line x1="10" y1="30" x2="50" y2="30" stroke-width="3" />
    </g>
    <g id="OMA_S_alpha__noble_elements">
        <path d="M 40 20 q -8 22 -14 22 a 10 10 0 0 1 0 -20 c 10 0 10 20 20 20" stroke-width="3" />
    </g>
    <g id="OMA_SC_animismus_triangle">
        <path d="M 30 10 l -12.99 22.5 h 25.98 z" stroke-width="3" />
    </g>
    <g id="OMA_S_anti_copper__alchemical_inversions">
        <use href="#OMA_S_copper__opus_magnum" transform="rotate(180, 30, 30)" />
    </g>
    <g id="OMA_S_anti_gold__alchemical_inversions">
        <circle cx="30" cy="25" r="15" stroke-width="3" />
        <circle cx="30" cy="49" r="1" class="fill" stroke-width="3" />
    </g>
    <g id="OMA_S_anti_iron__alchemical_inversions">
        <use href="#OMA_S_iron__opus_magnum" transform="rotate(180, 30, 30)" />
    </g>
    <g id="OMA_S_anti_lead__alchemical_inversions">
        <use href="#OMA_S_lead__opus_magnum" transform="rotate(180, 30, 30)" />
    </g>
    <g id="OMA_S_anti_silver__alchemical_inversions">
        <use href="#OMA_S_silver__opus_magnum" transform="rotate(-90, 30, 30)" />
    </g>
    <g id="OMA_S_anti_tin__alchemical_inversions">
        <use href="#OMA_S_tin__opus_magnum" transform="rotate(180, 30, 30)" />
    </g>
    <g id="OMA_S_antimony__prima_materia">
        <path d="M 30 27.5 a 10 10 0 0 0 0 20 a 10 10 0 0 0 0 -20 v -15 M 23 20 h 14" stroke-width="3" />
    </g>
    <g id="OMA_S_azulum__neuvolics">
        <path d="M 18 50 l 3 -7 M 23.4 37.4 l 6.6 -15.4 l 12 28 M 40.41 38.15 a 16 16 0 1 0 -5.63 3.12" stroke-width="3" />
    </g>
    <g id="OMA_S_bellum__uncommon_primes">
        <use href="#OMA_SC_animismus_triangle" />
        <path d="M 30 32.5 v 17.5 m -10 -10 l 10 10 10 -10" stroke-width="3" />
    </g>
    <g id="OMA_S_beryl__halving_metallurgy" class="nudge-up">
        <use href="#OMA_S_fire__opus_magnum" />
        <path d="M 30 12.68 v 23.09 l -20 11.55 m 20 -11.55 l 20 11.55" stroke-width="3" />
    </g>
    <g id="OMA_S_beta__noble_elements">
        <path d="M 24 50 v -30 q 0 -10 5 -10 a 7 7 0 0 1 0 14 7 7 0 0 1 0 14" stroke-width="3" />
    </g>
    <g id="OMA_S_bismuth__uncommon_primes">
        <path d="M 15 10 a 30 20 -10 0 1 -2.5 25 h 35 a 30 20 10 0 1 -2.5 -25 M 30 22.5 v 27.5" stroke-width="3" />
    </g>
    <g id="OMA_S_calcite__true_salt">
        <path d="M 12 30 a 18 20 0 0 0 36 0 a 18 20 0 0 0 -36 0 M 12.3 26.52 h 35.4 M 12.3 33.48 h 35.4" stroke-width="3" />
    </g>
    <g id="OMA_S_chromium__metal_quintessence">
        <path d="M 15 27 a 10 10 0 1 1 10 10 M 21 37 h 19 M 35 16 q 3 -3 5 -3 t 5 3 M 40 13 v 38 M 36 47 h 8" stroke-width="3" />
        <circle cx="25" cy="27" r="1" class="fill" stroke-width="3" />
    </g>
    <g id="OMA_S_cobalt__uncommon_primes">
        <path d="M 17 50 a 13 13 0 0 1 26 -0 M 30 10 a 13.5 13.5 0 0 0 0 27 a 13.5 13.5 0 0 0 0 -27" stroke-width="3" />
    </g>
    <g id="OMA_S_copper__opus_magnum">
        <path d="M 30 32.5 a 10 10 0 0 0 0 -20 10 10 0 0 0 0 20 v 15 M 22 39 h 16" stroke-width="3" />
    </g>
    <g id="OMA_S_dark_fixus__uncommon_primes">
        <use href="#OMA_S_pale_muto__uncommon_primes" transform="rotate(180, 30, 30)" />
    </g>
    <g id="OMA_S_earth__opus_magnum" class="nudge-down">
        <use href="#OMA_S_air__opus_magnum" transform="rotate(180, 30, 30)" />
    </g>
    <g id="OMA_S_fire__opus_magnum" class="nudge-up">
        <path d="M 30 12.68 l -20 34.64 h 40 z" stroke-width="3" />
    </g>
    <g id="OMA_S_fixus__uncommon_primes">
        <use href="#OMA_S_muto__uncommon_primes" transform="rotate(180, 30, 30)" />
    </g>
    <g id="OMA_SC_fluxismus_triangle">
        <use href="#OMA_SC_animismus_triangle" transform="translate(0, 5)" />
        <use href="#OMA_SC_quicksilver_horn" />
    </g>
    <g id="OMA_S_frixon__neuvolics">
        <path d="M 39.5 19.5 A 9.5 9.5 0 1 0 30 29 V 50 M 22 40.5 h 8 M 16.5 28 a 17 17 0 0 0 13.5 6.67 M 34.5 15.5 l 5 4 l 5 -4" stroke-width="3" />
    </g>
    <g id="OMA_S_gamma__noble_elements">
        <path d="M 22.5 20 c 20 40 -5 40 15 0" stroke-width="3" />
    </g>
    <g id="OMA_S_gelaron__neuvolics">
        <use href="#OMA_S_frixon__neuvolics" transform="translate(60, 0) scale(-1, 1)" />
    </g>
    <g id="OMA_S_gold__opus_magnum">
        <circle cx="30" cy="30" r="20" stroke-width="3" />
        <circle cx="30" cy="30" r="1" class="fill" stroke-width="3" />
    </g>
    <g id="OMA_S_grey_mors__true_animismus">
        <use href="#OMA_S_red_vitae__true_animismus" transform="rotate(180, 30, 30)" />
    </g>
    <g id="OMA_S_halite__true_salt">
        <use href="#OMA_S_calcite__true_salt" />
        <path d=" M 14.6 19.56 h 30.8 M 14.6 40.44 h 30.8" stroke-width="3" />
    </g>
    <g id="OMA_S_hestium__neuvolics">
        <path d="M 40 17 a 16.4 16.4 0 1 0 0 26 M 32 13.7 A 30 30 0 0 0 32 46.3 M 13.6 30 h 36.4 M 13.6 30 Q 22.79 38.43 32 30 T 50 30 M 45 25 l 5 5 L 45 35" stroke-width="3" />
    </g>
    <g id="OMA_S_ichor__extransmutations" class="nudge-up">
        <use href="#OMA_S_phosphorus__prima_materia" />
        <circle cx="24" cy="14" r="1" class="fill" stroke-width="3" />
        <circle cx="36" cy="14" r="1" class="fill" stroke-width="3" />
        <circle cx="30" cy="45" r="1" class="fill" stroke-width="3" />
    </g>
    <g id="OMA_S_ignistal__complicated_elements">
        <path d="M 30 10 a 20 20 90 0 1 -20 20 20 20 90 0 1 20 20 20 20 90 0 1 20 -20 20 20 90 0 1 -20 -20" stroke-width="3" />
    </g>
    <g id="OMA_S_iridium__neuvolics">
        <path d="M 30 24 v 12 M 24.8 27 l 10.39 6 M 35.2 27 l -10.39 6 M 20.4 37.2 a 10.8 10.8 90 1 1 19.2 0 M 15.6 37.2 a 15 15 90 1 1 28.8 0 M 10.8 37.2 a 19.5 19.5 90 1 1 38.4 0" stroke-width="3" />
    </g>
    <g id="OMA_S_iron__opus_magnum">
        <path d="M 15 35 a 10 10 0 0 0 20 0 10 10 0 0 0 -20 0 M 32.07 27.93 l 12.93 -12.93 M 35 15 h 10 v 10" stroke-width="3" />
    </g>
    <g id="OMA_S_lead__opus_magnum">
        <path d="M 38.34 50 q -4 -6 0 -10 c 7 -8 -3 -30 -14.49 -10 M 28.84 16 h -10 M 23.84 50 v -40" stroke-width="3" />
    </g>
    <g id="OMA_S_lux__uncommon_primes" class="nudge-up">
        <path d="M 10 47.32 l 20 -34.64 l 20 34.64 M 10 30 h 40" stroke-width="3" />
    </g>
    <g id="OMA_SC_magnesia_bowl">
        <path d="M 17.5 10 c -2.5 9 2.5 17.5 12.5 17.5 s 15 -8.5 12.5 -17.5" stroke-width="3" />
    </g>
    <g id="OMA_S_magnesia__prima_materia">
        <use href="#OMA_SC_magnesia_bowl" />
        <path d="M 30 27.5 v 22.5 M 17 35 h 26 M 20 42.5 h 20" stroke-width="3" />
    </g>
    <g id="OMA_S_mistaline__complicated_elements" class="nudge-down">
        <use href="#OMA_S_water__opus_magnum" />
        <path d="M 10,45 a 20 20 0 0 1 40,0" stroke-width="3" />
    </g>
    <g id="OMA_S_mitrum__neuvolics">
        <path d="M 16 25 a 14 14 0 0 0 28 0 14 14 0 0 0 -28 0 M 20 35 c -2.52 2.15 -5.77 5.14 -3.37 7.94 M 40 35 c 2.52 2.15 5.77 5.14 3.37 7.94 M 30 39 v 11" stroke-width="3" />
    </g>
    <g id="OMA_S_mors__opus_magnum">
        <use href="#OMA_S_vitae__opus_magnum" transform="rotate(180, 30, 30)" />
    </g>
    <g id="OMA_S_muto__uncommon_primes">
        <use href="#OMA_SC_fluxismus_triangle" />
        <path d="M 30 37.5 v 12.5 M 23 43.5 h 14" stroke-width="3" />
    </g>
    <g id="OMA_S_nickel__halving_metallurgy">
        <path d="M 30 25 a 7.5 7.5 0 0 0 0 -15 7.5 7.5 0 0 0 0 15 v 10 a 7.5 7.5 0 0 0 0 15 7.5 7.5 0 0 0 0 -15" stroke-width="3" />
    </g>
    <g id="OMA_S_nickel__uncommon_primes">
        <path d="M 37.0711 22.9289 a 5 5 0 0 0 7.071 -7.071 a 5 5 0 0 0 -7.071 7.071 l -3.5356 3.5356 a 12.5 12.5 0 0 0 -17.6776 17.6776 a 12.5 12.5 0 0 0 17.6776 -17.6776" stroke-width="3" />
    </g>
    <g id="OMA_S_nobilis__noble_elements">
        <circle cx="30" cy="30" r="12" stroke-width="3" />
        <circle cx="30" cy="15" r="3" stroke-width="3" />
        <circle cx="17.01" cy="37.5" r="3" stroke-width="3" />
        <circle cx="42.99" cy="37.5" r="3" stroke-width="3" />
    </g>
    <g id="OMA_S_obscurum__uncommon_primes" class="nudge-down">
        <use href="#OMA_S_lux__uncommon_primes" transform="rotate(180, 30, 30)" />
    </g>
    <g id="OMA_S_opalescence__prima_materia" class="outline">
        <use href="#OMA_SC_magnesia_bowl" />
        <use href="#OMA_SC_sulfur_infinity" />
        <line x1="30" y1="10" x2="30" y2="50" stroke-width="3" />
    </g>
    <g id="OMA_S_osmium__halving_metallurgy">
        <path d="M 30 6.91 l -20 11.55 v 23.09 l 20 11.55 20 -11.55 v -23.09 z M 10 18.46 l 20 11.55 20 -11.55 M 30 30.01 v 23.09" stroke-width="3" />
    </g>
    <g id="OMA_S_pale_muto__uncommon_primes">
        <use href="#OMA_SC_fluxismus_triangle" />
        <path d="M 25 37.5 v 12.5 M 35 37.5 v 12.5" stroke-width="3" />
    </g>
    <g id="OMA_S_pax__uncommon_primes">
        <use href="#OMA_S_bellum__uncommon_primes" transform="rotate(180, 30, 30)" />
    </g>
    <g id="OMA_S_phosphorus__prima_materia">
        <use href="#OMA_SC_animismus_triangle" transform="translate(0, 20)" />
        <path d="M 30 10 v 20 M 20 20 h 20" stroke-width="3" />
    </g>
    <g id="OMA_S_platinum__uncommon_primes">
        <path d="M 10 15 a 17 17 0 1 1 0 30 M 18 13 a 28 28 0 0 1 0 34 M 35 30 a 10 10 0 0 0 20 0 a 10 10 0 0 0 -20 0" stroke-width="3" />
        <circle cx="45" cy="30" r="1" class="fill" stroke-width="3" />
    </g>
    <g id="OMA_S_primae__prima_materia">
        <path d="M 46.67 20.38 h -33.33 l 16.67 28.87 z M 41.67 20.38 a 11.67 11.67 90 0 0 -23.33 0 M 32.5 44.91 a 11.67 11.67 90 0 0 11.67 -20.21 M 15.83 24.71 a 11.67 11.67 90 0 0 11.67 20.21" stroke-width="3" />
    </g>
    <g id="OMA_S_potash__prima_materia">
        <path d="M 15 10 v 20 h 30 v -20 M 30 30 v 20 M 20 40 h 20" stroke-width="3" />
    </g>
    <g id="OMA_S_pyrolite__complicated_elements" class="nudge-up">
        <use href="#OMA_S_fire__opus_magnum" />
        <path d="M 10 25 l 20 10 20 -10" stroke-width="3" />
    </g>
    <g id="OMA_S_quickcopper__halving_metallurgy">
        <path d="M 30 50 v -15 a 10 10 0 1 1 7.07 -17.07 l -7 -7 M 23.07 44.37 l 13.86 -5.74" stroke-width="3" />
    </g>
    <g id="OMA_S_quicklime__halving_metallurgy">
        <path d="M 33.81 20.05 A 13.32 13.32 90 1 0 32.5 40.56 C 37.82 36.96 43.11 26.01 43.6 21.23 Q 50.69 28.87 47.78 43.6" stroke-width="3" />
    </g>
    <g id="OMA_S_quicklime__prima_materia">
        <path d="M 14.8 10 C 10.8 35.6 49.2 35.6 45.2 10 M 30 19.6 V 50 M 22 35.6 h 17.6" stroke-width="3" />
    </g>
    <g id="OMA_S_quicksilver__opus_magnum">
        <use href="#OMA_S_copper__opus_magnum" transform="translate(0, 2.25)" />
        <use href="#OMA_SC_quicksilver_horn" />
    </g>
    <g id="OMA_SC_quicksilver_horn">
        <path d="M 35 10 a 5 5 0 0 1 -10 0" stroke-width="3" />
    </g>
    <g id="OMA_S_quintessence__opus_magnum">
        <path d="M 12.68 20 h 34.64 l -17.32 30 z M 24.23 40 h -11.55 l 5.77 -10 M 35.77 40 h 11.55 l -5.77 -10 M 24.23 20 l 5.77 -10 l 5.77 10" stroke-width="3" />
    </g>
    <g id="OMA_S_red_vitae__true_animismus">
        <use href="#OMA_SC_animismus_triangle" />
        <path d="M 25 32.5 v 17.5 M 35 32.5 v 17.5" stroke-width="3" />
    </g>
    <g id="OMA_S_repeat__opus_magnum">
        <circle cx="15" cy="30" r="2" class="fill" stroke-width="3" />
        <circle cx="30" cy="30" r="2" class="fill" stroke-width="3" />
        <circle cx="45" cy="30" r="2" class="fill" stroke-width="3" />
    </g>
    <g id="OMA_S_salt__opus_magnum">
        <path d="M 12 30 a 18 20 0 0 0 36 0 18 20 0 0 0 -36 0 h 36" stroke-width="3" />
    </g>
    <g id="OMA_S_sednum__halving_metallurgy">
        <path d="M 22.5 20 a 5 5 0 0 0 -10 0 5 5 0 0 0 10 0 h 5 M 27.5 10 v 20 a 20 20 0 0 1 20 20" stroke-width="3" />
    </g>
    <g id="OMA_S_silver__opus_magnum">
        <path d="M 15.86 15.86 a 20 20 0 1 1 0 28.28 M 44.14 15.86 v 28.28" stroke-width="3" />
    </g>
    <g id="OMA_SC_sulfur_infinity">
        <path d="M 30 39.4724 c 5 -5 18.75 -6.875 18.75 3.125 s -16.25 2.5 -18.75 -3.125 c -5 -5 -18.75 -6.875 -18.75 3.125 s 16.25 2.5 18.75 -3.125" stroke-width="3" />
    </g>
    <g id="OMA_S_sulfur__prima_materia">
        <use href="#OMA_SC_sulfur_infinity" />
        <path d="M 30 39.4724 v -26.9724 M 43 27.5 h -26 M 40 20 h -20" stroke-width="3" />
    </g>
    <g id="OMA_S_taceum__neuvolics">
        <path d="M 30 25.76 l -14 24.24 h 28 z M 30 23.08 a 10 10 0 0 0 -20 0 10 10 0 0 0 20 0 10 10 0 0 0 20 0 10 10 0 0 0 -20 0" stroke-width="3" />
    </g>
    <g id="OMA_S_tenebrivex__alchemical_inversions">
        <path d="M 36.67 41.55 l 13.33 -23.1 h -26.67 l -13.33 23.1 z l -13.34 -23.1 M 24.23 33.33 l 11.54 -6.66" stroke-width="3" />
    </g>
    <g id="OMA_S_terramarine__complicated_elements">
        <path d="M 12 40 c 14 -8 22 8 36 0 m -25.1 -2.1 l -8.2 -19.9 m 15.3 22 l 0 -25 m 5.5 26.8 l 9.8 -23.7" stroke-width="3" />
    </g>
    <g id="OMA_S_tin__opus_magnum">
        <path d="M 35 10 v 40 M 45 35 h -30 M 19 35 c 14 0 10 -21 0 -10" stroke-width="3" />
    </g>
    <g id="OMA_S_true_fixus__uncommon_primes">
        <use href="#OMA_S_true_muto__uncommon_primes" transform="rotate(180, 30, 30)" />
    </g>
    <g id="OMA_S_true_mors__true_animismus">
        <use href="#OMA_S_true_vitae__true_animismus" transform="rotate(180, 30, 30)" />
    </g>
    <g id="OMA_S_true_muto__uncommon_primes">
        <use href="#OMA_SC_fluxismus_triangle" />
        <path d="M 25 37.5 l 10 12.5 M 35 37.5 l -10 12.5" stroke-width="3" />
    </g>
    <g id="OMA_S_true_vitae__true_animismus">
        <use href="#OMA_SC_animismus_triangle" />
        <path d="M 25 32.5 l 10 17.5 M 35 32.5 l -10 17.5" stroke-width="3" />
    </g>
    <g id="OMA_S_uranium__unstable_elements">
        <path d="M 30 30 a 10 10 0 0 1 0 20 10 10 0 0 1 0 -20 l 0 -20 M 25 17 l 10 0 M 18 10 a 7 7 0 0 1 0 14 M 42 10 a 7 7 0 0 0 0 14" stroke-width="3" />
    </g>
    <g id="OMA_SC_vaca_star">
        <line x1="4" y1="0" x2="4" y2="8" stroke-width="2" />
        <line x1="0" y1="4" x2="8" y2="4" stroke-width="2" />
    </g>
    <g id="OMA_S_vaca__vacancy">
        <use href="#OMA_SC_vaca_star" transform="translate(40, 15)" />
        <use href="#OMA_SC_vaca_star" transform="translate(10, 26)" />
        <use href="#OMA_SC_vaca_star" transform="translate(20, 36)" />
        <use href="#OMA_SC_vaca_star" transform="translate(30, 46)" />
    </g>
    <g id="OMA_S_vaprorine__complicated_elements">
        <path d="M 30 50 l 20 -20 -20 -20 -20 20 16 16 16 -16 -12 -12 -12 12 8 8 8 -8 -4 -4 -4 4" stroke-width="3" stroke-linecap="square" />
    </g>
    <g id="OMA_S_vitae__opus_magnum">
        <use href="#OMA_SC_animismus_triangle" />
        <path d="M 30 32.5 v 17.5 M 23 41.25 h 14" stroke-width="3" />
    </g>
    <g id="OMA_S_vulcan__halving_metallurgy">
        <path d="M 27.02 10.84 L 49.16 32.98 L 39.67 42.47 L 17.53 20.33 Z M 12.14 47.86 L 28.51 31.49 M 38.09 21.91 L 43.39 16.61" stroke-width="3" />
    </g>
    <g id="OMA_S_water__opus_magnum" class="nudge-down">
        <use href="#OMA_S_fire__opus_magnum" transform="rotate(180, 30, 30)" />
    </g>
    <g id="OMA_S_wolfram__halving_metallurgy">
        <path d="M 21.29 25 q -10 15 5 20 l 5 -10 5 10 q 15 -10 -5 -30" stroke-width="3" />
    </g>
    <g id="OMA_S_yttrium__alchemical_inversions">
        <path d="M 20 45 l 10 -30 l 10 30 M 50 20 a 30 30 0 0 1 -40 0 a 20 20 0 0 0 40 0 a 30 30 0 0 1 -40 0" stroke-width="3" />
    </g>
    <g id="OMA_S_zephiron__neuvolics">
        <path d="M 30 29 a 9.5 9.5 0 0 0 0 -19 a 9.5 9.5 0 0 0 0 19 V 50 M 22 40.5 h 16 M 16.5 28 a 17 17 0 0 0 27 0" stroke-width="3" />
    </g>
    <g id="OMA_S_zinc__halving_metallurgy">
        <path d="M 17.5 20 l 22.5 22.5 h -22.5 l 8.75 -8.75 M 31.25 28.75 l 11.25 -11.25 M 32.5 17.5 h 10 v 10" stroke-width="3" />
    </g>
    <g id="OMA_S_zinc__uncommon_primes">
        <path d="M 30 20 a 15 15 0 0 0 0 30 a 15 15 0 0 0 0 -30 M 15 20 q 5 0 15 -10 q 10 10 15 10" stroke-width="3" />
    </g>
</svg>